<svg width="201" height="51" viewBox="0 0 201 51" fill="none" xmlns="http://www.w3.org/2000/svg">
<rect x="0.5" y="0.5" width="200" height="50" rx="19.5" stroke="#29A867"/>
<path d="M26.728 16.08L20.776 27.624V33H16.048V27.624L10.096 16.08H15.472L18.448 22.608L21.424 16.08H26.728ZM38.8761 30.24H32.8761L31.9641 33H27.0201L33.1881 16.08H38.6121L44.7561 33H39.7881L38.8761 30.24ZM37.7001 26.64L35.8761 21.168L34.0761 26.64H37.7001ZM56.2973 33L50.9933 25.584V33H46.2893V16.08H50.9933V23.376L56.2493 16.08H61.6733L55.4573 24.288L61.9853 33H56.2973ZM68.3114 16.08V25.896C68.3114 26.808 68.5194 27.512 68.9354 28.008C69.3674 28.504 70.0154 28.752 70.8794 28.752C71.7434 28.752 72.3914 28.504 72.8234 28.008C73.2714 27.496 73.4954 26.792 73.4954 25.896V16.08H78.1994V25.896C78.1994 27.448 77.8714 28.776 77.2154 29.88C76.5594 30.968 75.6634 31.792 74.5274 32.352C73.4074 32.896 72.1594 33.168 70.7834 33.168C69.4074 33.168 68.1754 32.896 67.0874 32.352C66.0154 31.792 65.1674 30.968 64.5434 29.88C63.9354 28.792 63.6314 27.464 63.6314 25.896V16.08H68.3114ZM87.1733 33.168C85.2053 33.168 83.5893 32.704 82.3253 31.776C81.0613 30.832 80.3813 29.488 80.2853 27.744H85.3013C85.3493 28.336 85.5253 28.768 85.8293 29.04C86.1333 29.312 86.5253 29.448 87.0053 29.448C87.4373 29.448 87.7893 29.344 88.0613 29.136C88.3493 28.912 88.4933 28.608 88.4933 28.224C88.4933 27.728 88.2613 27.344 87.7973 27.072C87.3333 26.8 86.5813 26.496 85.5413 26.16C84.4373 25.792 83.5413 25.44 82.8533 25.104C82.1813 24.752 81.5893 24.248 81.0773 23.592C80.5813 22.92 80.3333 22.048 80.3333 20.976C80.3333 19.888 80.6053 18.96 81.1493 18.192C81.6933 17.408 82.4453 16.816 83.4053 16.416C84.3653 16.016 85.4533 15.816 86.6693 15.816C88.6373 15.816 90.2053 16.28 91.3733 17.208C92.5573 18.12 93.1893 19.408 93.2693 21.072H88.1573C88.1413 20.56 87.9813 20.176 87.6773 19.92C87.3893 19.664 87.0133 19.536 86.5493 19.536C86.1973 19.536 85.9093 19.64 85.6853 19.848C85.4613 20.056 85.3493 20.352 85.3493 20.736C85.3493 21.056 85.4693 21.336 85.7093 21.576C85.9653 21.8 86.2773 22 86.6453 22.176C87.0133 22.336 87.5573 22.544 88.2773 22.8C89.3493 23.168 90.2293 23.536 90.9173 23.904C91.6213 24.256 92.2213 24.76 92.7173 25.416C93.2293 26.056 93.4853 26.872 93.4853 27.864C93.4853 28.872 93.2293 29.776 92.7173 30.576C92.2213 31.376 91.4933 32.008 90.5333 32.472C89.5893 32.936 88.4693 33.168 87.1733 33.168ZM106.376 30.24H100.376L99.4641 33H94.5201L100.688 16.08H106.112L112.256 33H107.288L106.376 30.24ZM105.2 26.64L103.376 21.168L101.576 26.64H105.2ZM116.069 33.192C115.237 33.192 114.565 32.968 114.053 32.52C113.557 32.056 113.309 31.472 113.309 30.768C113.309 30.064 113.557 29.48 114.053 29.016C114.565 28.552 115.237 28.32 116.069 28.32C116.885 28.32 117.541 28.552 118.037 29.016C118.549 29.48 118.805 30.064 118.805 30.768C118.805 31.456 118.549 32.032 118.037 32.496C117.541 32.96 116.885 33.192 116.069 33.192Z" fill="black"/>
<path d="M120.432 24.504C120.432 22.84 120.776 21.36 121.464 20.064C122.168 18.752 123.16 17.736 124.44 17.016C125.72 16.28 127.192 15.912 128.856 15.912C130.968 15.912 132.744 16.48 134.184 17.616C135.624 18.736 136.552 20.264 136.968 22.2H131.904C131.6 21.56 131.176 21.072 130.632 20.736C130.104 20.4 129.488 20.232 128.784 20.232C127.696 20.232 126.824 20.624 126.168 21.408C125.528 22.176 125.208 23.208 125.208 24.504C125.208 25.816 125.528 26.864 126.168 27.648C126.824 28.416 127.696 28.8 128.784 28.8C129.488 28.8 130.104 28.632 130.632 28.296C131.176 27.96 131.6 27.472 131.904 26.832H136.968C136.552 28.768 135.624 30.304 134.184 31.44C132.744 32.56 130.968 33.12 128.856 33.12C127.192 33.12 125.72 32.76 124.44 32.04C123.16 31.304 122.168 30.288 121.464 28.992C120.776 27.68 120.432 26.184 120.432 24.504ZM147.308 33.168C145.724 33.168 144.268 32.8 142.94 32.064C141.612 31.312 140.556 30.28 139.772 28.968C139.004 27.64 138.62 26.144 138.62 24.48C138.62 22.816 139.004 21.328 139.772 20.016C140.556 18.688 141.612 17.656 142.94 16.92C144.268 16.184 145.724 15.816 147.308 15.816C148.908 15.816 150.364 16.184 151.676 16.92C153.004 17.656 154.052 18.688 154.82 20.016C155.588 21.328 155.972 22.816 155.972 24.48C155.972 26.144 155.588 27.64 154.82 28.968C154.052 30.28 153.004 31.312 151.676 32.064C150.348 32.8 148.892 33.168 147.308 33.168ZM147.308 28.8C148.508 28.8 149.452 28.408 150.14 27.624C150.844 26.84 151.196 25.792 151.196 24.48C151.196 23.136 150.844 22.08 150.14 21.312C149.452 20.528 148.508 20.136 147.308 20.136C146.092 20.136 145.14 20.528 144.452 21.312C143.764 22.08 143.42 23.136 143.42 24.48C143.42 25.808 143.764 26.864 144.452 27.648C145.14 28.416 146.092 28.8 147.308 28.8ZM177.838 16.08V33H173.134V23.664L169.942 33H166.006L162.79 23.592V33H158.086V16.08H163.774L168.022 27.072L172.174 16.08H177.838ZM193.884 21.72C193.884 22.744 193.644 23.68 193.164 24.528C192.7 25.36 191.988 26.032 191.028 26.544C190.084 27.04 188.924 27.288 187.548 27.288H185.22V33H180.516V16.08H187.548C188.908 16.08 190.06 16.32 191.004 16.8C191.964 17.28 192.684 17.944 193.164 18.792C193.644 19.64 193.884 20.616 193.884 21.72ZM187.092 23.544C188.42 23.544 189.084 22.936 189.084 21.72C189.084 20.488 188.42 19.872 187.092 19.872H185.22V23.544H187.092Z" fill="#29A867"/>
</svg>
